<?xml version="1.0" encoding="UTF-8"?>
<svg version="1.1" xmlns="http://www.w3.org/2000/svg" width="616" height="126">
<path d="M0 0 C1.58384743 -0.00717545 1.58384743 -0.00717545 3.19969177 -0.01449585 C5.41919455 -0.01788022 7.63874818 -0.00878102 9.8581543 0.01220703 C13.2405577 0.03901862 16.61965099 0.01239348 20.00195312 -0.01953125 C22.16797601 -0.01622742 24.33399686 -0.00982174 26.5 0 C27.50229141 -0.01012115 28.50458282 -0.02024231 29.5372467 -0.03067017 C39.71591742 0.13795523 45.34938575 4.8536231 52.265625 11.84765625 C52.84648361 12.42564468 53.42734222 13.00363312 54.02580261 13.59913635 C55.24020658 14.81151558 56.450898 16.02762426 57.65795898 17.24731445 C59.49854759 19.10403785 61.35469653 20.94411768 63.21289062 22.78320312 C64.39809895 23.97039302 65.58237679 25.15851274 66.765625 26.34765625 C67.31563675 26.89159531 67.8656485 27.43553436 68.43232727 27.99595642 C75.66968417 35.36633239 76.83176059 42.57773186 76.921875 52.515625 C76.92994675 53.37030365 76.93801849 54.2249823 76.94633484 55.1055603 C76.96013412 56.91263833 76.97087476 58.71974196 76.97875977 60.52685547 C76.99024884 62.35766345 77.01065171 64.18843874 77.0402832 66.01904297 C77.28134604 80.93261729 76.79331773 90.87439725 66.08984375 102.01171875 C64.15021387 103.95418577 62.18903801 105.87039945 60.21142578 107.77416992 C58.17233933 109.73739823 56.15884071 111.72424327 54.1484375 113.71679688 C52.85946783 114.98319218 51.56915 116.24821707 50.27734375 117.51171875 C49.67619751 118.10122818 49.07505127 118.69073761 48.45568848 119.29811096 C47.88829956 119.8430571 47.32091064 120.38800323 46.73632812 120.94946289 C46.24209351 121.4270253 45.74785889 121.90458771 45.23864746 122.3966217 C41.73978995 125.24835262 38.89283165 125.92134318 34.4152832 126.00219727 C33.36351395 126.02464005 32.31174469 126.04708282 31.22810364 126.07020569 C30.09579819 126.0818425 28.96349274 126.09347931 27.796875 126.10546875 C26.62529343 126.11924057 25.45371185 126.13301239 24.24662781 126.14720154 C21.76611044 126.17047569 19.2855305 126.18773999 16.80493164 126.19946289 C13.02698217 126.22634273 9.25185169 126.30124552 5.47460938 126.37695312 C3.06121671 126.39361504 0.64780195 126.40737987 -1.765625 126.41796875 C-2.8878093 126.44782364 -4.00999359 126.47767853 -5.16618347 126.50843811 C-13.32640342 126.46313456 -17.51545238 124.31025195 -23.31640625 118.6640625 C-24.26354492 117.80756104 -25.21068359 116.95105957 -26.18652344 116.06860352 C-28.8211392 113.4623483 -31.4505921 110.85170551 -34.06640625 108.2265625 C-35.44505859 106.87208008 -35.44505859 106.87208008 -36.8515625 105.49023438 C-50.34870642 92.00285684 -50.34870642 92.00285684 -50.50927734 82.25952148 C-50.53337173 80.92684486 -50.53337173 80.92684486 -50.55795288 79.56724548 C-50.60268677 75.48941984 -50.64350466 71.41175455 -50.66650391 67.33374023 C-50.68300977 65.19137671 -50.7102281 63.04906703 -50.74853516 60.90698242 C-50.80370026 57.80358569 -50.82524267 54.70147933 -50.83984375 51.59765625 C-50.86251312 50.65248642 -50.8851825 49.70731659 -50.90853882 48.73350525 C-50.87991573 39.58913577 -47.53446483 32.38238431 -41.16912842 25.84770203 C-40.67632385 25.36815567 -40.18351929 24.88860931 -39.67578125 24.39453125 C-39.14929993 23.86563797 -38.6228186 23.33674469 -38.0803833 22.79182434 C-36.97711414 21.68952403 -35.86773604 20.59330534 -34.75244141 19.50317383 C-33.06753535 17.85266855 -31.40806353 16.17937625 -29.75 14.50195312 C-28.66418835 13.42304019 -27.57699311 12.34551756 -26.48828125 11.26953125 C-25.76121979 10.53502998 -25.76121979 10.53502998 -25.01947021 9.78569031 C-17.43820175 2.45263223 -10.49134282 -0.10615614 0 0 Z M9.11865234 11.63134766 C7.65493006 11.6532626 6.19092131 11.66061127 4.72705078 11.65380859 C-5.14825003 11.37919919 -5.14825003 11.37919919 -13.71484375 15.62109375 C-14.94127177 16.94521684 -16.14033743 18.29501547 -17.31640625 19.6640625 C-18.92991667 21.23961983 -20.5528912 22.80552454 -22.18359375 24.36328125 C-23.85549834 26.02339341 -25.52474057 27.68619082 -27.19140625 29.3515625 C-28.47144531 30.61323242 -28.47144531 30.61323242 -29.77734375 31.90039062 C-30.59203125 32.71314453 -31.40671875 33.52589844 -32.24609375 34.36328125 C-32.98069824 35.09377686 -33.71530273 35.82427246 -34.47216797 36.5769043 C-37.3325086 39.81400412 -38.56265189 42.46139007 -38.59106445 46.78662109 C-38.60059647 47.58780365 -38.61012848 48.38898621 -38.61994934 49.21444702 C-38.61903793 50.0718045 -38.61812653 50.92916199 -38.6171875 51.8125 C-38.62147263 52.70264801 -38.62575775 53.59279602 -38.63017273 54.50991821 C-38.63590944 56.39104361 -38.63642115 58.27219118 -38.63208008 60.15332031 C-38.62892516 63.02187255 -38.6523697 65.88938809 -38.67773438 68.7578125 C-38.68000804 70.58854037 -38.68071055 72.419271 -38.6796875 74.25 C-38.68889725 75.10330902 -38.69810699 75.95661804 -38.70759583 76.83578491 C-38.64456417 85.00707173 -35.92709622 89.4353793 -30.1328125 95.2109375 C-29.636035 95.7082135 -29.13925751 96.2054895 -28.62742615 96.71783447 C-27.58293047 97.76000378 -26.53477481 98.79851668 -25.4831543 99.83349609 C-23.87820359 101.41475478 -22.28709291 103.00902025 -20.69726562 104.60546875 C-13.62236513 112.25360675 -13.62236513 112.25360675 -4.04199219 115.00219727 C-3.20722351 115.02464005 -2.37245483 115.04708282 -1.51239014 115.07020569 C-0.6175592 115.0818425 0.27727173 115.09347931 1.19921875 115.10546875 C2.59391388 115.12612648 2.59391388 115.12612648 4.01678467 115.14720154 C5.98362295 115.17045536 7.95053972 115.18773004 9.91748047 115.19946289 C12.91001168 115.22635062 15.89898599 115.30126224 18.890625 115.37695312 C20.8059659 115.39361532 22.72133464 115.40738007 24.63671875 115.41796875 C25.52345276 115.44782364 26.41018677 115.47767853 27.3237915 115.50843811 C33.51536625 115.46513344 36.54836657 113.84329605 40.93624878 109.50660706 C41.51287262 108.89856735 42.08949646 108.29052765 42.68359375 107.6640625 C43.58392334 106.80643311 44.48425293 105.94880371 45.41186523 105.06518555 C46.20149658 104.27668213 46.99112793 103.48817871 47.8046875 102.67578125 C48.67673828 101.80501953 49.54878906 100.93425781 50.44726562 100.03710938 C51.32962891 99.15087891 52.21199219 98.26464844 53.12109375 97.3515625 C54.03052734 96.44599609 54.93996094 95.54042969 55.87695312 94.60742188 C56.73998047 93.74310547 57.60300781 92.87878906 58.4921875 91.98828125 C59.66479126 90.8139856 59.66479126 90.8139856 60.86108398 89.6159668 C63.4311361 86.86344614 63.8172066 85.23623065 63.93994141 81.57250977 C63.9689151 80.72725235 63.99788879 79.88199493 64.02774048 79.01112366 C64.12573222 75.11384527 64.19941084 71.21673848 64.25341797 67.31860352 C64.28992152 65.27295078 64.34433352 63.22753176 64.41748047 61.18286133 C65.26491177 47.39888911 65.26491177 47.39888911 59.66796875 35.2890625 C58.05012496 33.70168688 56.38906761 32.15689163 54.68359375 30.6640625 C53.25171102 29.16981999 51.82688485 27.66877447 50.41015625 26.16015625 C49.04817443 24.80205104 47.68104644 23.44908536 46.30859375 22.1015625 C45.61121094 21.40482422 44.91382812 20.70808594 44.1953125 19.99023438 C34.10121259 9.98331959 22.70723236 11.37149854 9.11865234 11.63134766 Z " fill="#F2F2F2" transform="translate(50.31640625,-0.6640625)"/>
<path d="M0 0 C0.94294922 -0.020625 1.88589844 -0.04125 2.85742188 -0.0625 C11.78795597 -0.11160259 19.90987735 1.01196187 26.5 7.5 C27.32242188 8.29792969 28.14484375 9.09585937 28.9921875 9.91796875 C30.14074219 11.07232422 30.14074219 11.07232422 31.3125 12.25 C31.97507812 12.86488281 32.63765625 13.47976562 33.3203125 14.11328125 C39.18795618 19.63801069 43.94772978 25.68989558 44.48950195 33.94799805 C44.55610571 37.27792037 44.59738409 40.60702182 44.625 43.9375 C44.66850586 45.65743164 44.66850586 45.65743164 44.71289062 47.41210938 C44.79329232 58.21686039 42.13094236 65.17576641 34.625 72.875 C34.09680664 73.42841064 33.56861328 73.98182129 33.02441406 74.55200195 C24.83138094 82.9916191 18.12017448 88.11304421 6.03515625 88.55078125 C4.14848873 88.56522338 2.26171174 88.56895692 0.375 88.5625 C-0.56279297 88.57861328 -1.50058594 88.59472656 -2.46679688 88.61132812 C-11.09735089 88.61732573 -18.31329269 87.30001333 -24.6875 81.125 C-25.51507813 80.32964844 -26.34265625 79.53429687 -27.1953125 78.71484375 C-28.01773438 77.90144531 -28.84015625 77.08804688 -29.6875 76.25 C-30.50992188 75.48816406 -31.33234375 74.72632812 -32.1796875 73.94140625 C-39.30256286 67.20386677 -42.80909403 62.2018217 -43.21875 52.1875 C-43.22662612 50.21453126 -43.23396902 48.24138094 -43.20898438 46.26855469 C-43.18753548 44.25333353 -43.20885482 42.24167534 -43.234375 40.2265625 C-43.18741876 28.46402361 -40.81319802 22.88494482 -32.5859375 14.65039062 C-31.83570313 13.92013672 -31.08546875 13.18988281 -30.3125 12.4375 C-29.57 11.68791016 -28.8275 10.93832031 -28.0625 10.16601562 C-19.28909819 1.49336843 -11.9680653 0.06412895 0 0 Z M-4.625 12.5625 C-5.67977539 12.59633789 -5.67977539 12.59633789 -6.75585938 12.63085938 C-11.15857972 12.85780372 -14.20058107 13.48639497 -17.6875 16.25 C-17.6875 16.91 -17.6875 17.57 -17.6875 18.25 C-18.6775 18.58 -19.6675 18.91 -20.6875 19.25 C-20.6875 19.91 -20.6875 20.57 -20.6875 21.25 C-21.244375 21.45625 -21.80125 21.6625 -22.375 21.875 C-26.4623058 24.30528993 -29.19211882 27.76385646 -30.6875 32.25 C-30.97179634 36.18270072 -30.96511656 40.12067072 -31 44.0625 C-31.02900391 45.14337891 -31.05800781 46.22425781 -31.08789062 47.33789062 C-31.15377563 55.593788 -29.36582455 59.44892104 -23.7421875 65.42578125 C-22.68746772 66.47657528 -21.62749512 67.52212156 -20.5625 68.5625 C-20.02496094 69.09939453 -19.48742187 69.63628906 -18.93359375 70.18945312 C-12.76915523 76.28471466 -7.98376728 75.5917716 0.4375 75.75 C2.25507812 75.83121094 2.25507812 75.83121094 4.109375 75.9140625 C10.07955506 76.005111 14.26489082 76.0170651 18.90234375 71.98828125 C20.06634202 70.76763094 21.20665591 69.52357293 22.3125 68.25 C23.13621094 67.47011719 23.95992187 66.69023438 24.80859375 65.88671875 C25.76958984 64.92185547 25.76958984 64.92185547 26.75 63.9375 C27.40871094 63.28136719 28.06742188 62.62523437 28.74609375 61.94921875 C32.97669385 57.35991441 31.70603083 50.51037933 31.8125 44.625 C31.86664063 43.36558594 31.92078125 42.10617188 31.9765625 40.80859375 C32.1103132 32.53574584 32.1103132 32.53574584 28.0234375 25.625 C26.80821253 24.47653549 25.57336568 23.34816219 24.3125 22.25 C23.61382812 21.43789063 22.91515625 20.62578125 22.1953125 19.7890625 C17.68304799 14.87570781 14.00207519 12.75297558 7.3125 12.25 C3.32434959 12.25 -0.64282882 12.37010704 -4.625 12.5625 Z " fill="#F3F3F3" transform="translate(62.6875,18.75)"/>
<path d="M0 0 C0.33 0.99 0.66 1.98 1 3 C2.299375 2.01 2.299375 2.01 3.625 1 C7.21423463 -1.12695385 8.92694798 -1.38790972 13 -1 C13.33 0.98 13.66 2.96 14 5 C14.928125 4.195625 15.85625 3.39125 16.8125 2.5625 C21.24201907 -1.27641652 25.45061098 -1.34157717 31.12890625 -1.28125 C35.33654609 -0.86907304 38.71272929 0.30565876 42 3 C43.1875 5.5 43.1875 5.5 43 8 C41.5625 10.3125 41.5625 10.3125 40 12 C36.62537285 11.45276317 34.91765 10.9451 32 9 C28.87478167 8.83300768 28.87478167 8.83300768 26 9 C25.67 9.99 25.34 10.98 25 12 C26.04800781 12.32613281 27.09601562 12.65226562 28.17578125 12.98828125 C29.55484175 13.42920535 30.93373962 13.87063832 32.3125 14.3125 C33.00279297 14.52583984 33.69308594 14.73917969 34.40429688 14.95898438 C41.33496359 17.20224365 41.33496359 17.20224365 43 20 C43.46875 23.21484375 43.46875 23.21484375 43.5 26.9375 C43.5309375 28.16339844 43.561875 29.38929687 43.59375 30.65234375 C43 34 43 34 40.59375 36.37890625 C34.71557048 40.05276845 28.81080143 39.67391088 22 39 C18.38658136 37.71781919 15.21755585 36.07584248 12 34 C12.54723683 30.62537285 13.0549 28.91765 15 26 C17.59965956 26.44565592 19.88480638 26.95018654 22.3125 28 C25.87608589 29.32598545 29.21926552 29.61551853 33 30 C33.07305237 28.04131919 33.07305237 28.04131919 32 26 C28.89615522 24.74573221 25.86264165 23.87221859 22.63476562 23.02148438 C17.94044553 21.65861725 15.53758028 20.20992962 13 16 C12.75 12.6875 12.75 12.6875 13 10 C11.35303396 10.4752588 9.70745272 10.95531891 8.0625 11.4375 C6.68771484 11.83775391 6.68771484 11.83775391 5.28515625 12.24609375 C3.0597507 12.79026051 3.0597507 12.79026051 2 14 C1.85447268 15.76733176 1.77277531 17.54000994 1.71875 19.3125 C1.68136719 20.38757813 1.64398437 21.46265625 1.60546875 22.5703125 C1.57066406 23.70210937 1.53585937 24.83390625 1.5 26 C1.43144506 28.22930507 1.3587576 30.45848824 1.28125 32.6875 C1.23581055 34.17830078 1.23581055 34.17830078 1.18945312 35.69921875 C1 38 1 38 0 39 C-3.63 39 -7.26 39 -11 39 C-11 26.13 -11 13.26 -11 0 C-6.80104745 -1.04973814 -4.20594226 -0.72795155 0 0 Z " fill="#F4F4F4" transform="translate(572,48)"/>
<path d="M0 0 C1 1 1 1 1.11352539 2.85766602 C1.10828857 3.64842529 1.10305176 4.43918457 1.09765625 5.25390625 C1.09515869 6.0229126 1.09266113 6.79191895 1.09008789 7.58422852 C1.08098389 8.56705811 1.07187988 9.5498877 1.0625 10.5625 C1.0315625 15.2340625 1.0315625 15.2340625 1 20 C7.6 20 14.2 20 21 20 C21 13.4 21 6.8 21 0 C24.63 0 28.26 0 32 0 C32.707855 3.53927498 33.1282256 6.1700727 33.14526367 9.66674805 C33.15164352 10.56084885 33.15802338 11.45494965 33.16459656 12.37614441 C33.16570938 13.32838394 33.1668222 14.28062347 33.16796875 15.26171875 C33.17296135 16.74222466 33.17296135 16.74222466 33.17805481 18.25263977 C33.18310639 20.33289118 33.18546368 22.41315066 33.18530273 24.4934082 C33.18749931 27.68649424 33.2057012 30.87924022 33.22460938 34.07226562 C33.22754157 36.09374882 33.22952753 38.11523365 33.23046875 40.13671875 C33.23765427 41.09503098 33.24483978 42.0533432 33.25224304 43.04069519 C33.24916641 43.92533951 33.24608978 44.80998383 33.24291992 45.72143555 C33.24434494 46.50133347 33.24576996 47.28123138 33.24723816 48.08476257 C33 50 33 50 31 52 C28.87109375 52.23046875 28.87109375 52.23046875 26.4375 52.1875 C25.63183594 52.18105469 24.82617188 52.17460938 23.99609375 52.16796875 C22 52 22 52 21 51 C20.91314397 49.43827255 20.89297781 47.87270656 20.90234375 46.30859375 C20.90556641 45.36435547 20.90878906 44.42011719 20.91210938 43.44726562 C20.92467773 41.95743164 20.92467773 41.95743164 20.9375 40.4375 C20.94201172 39.44041016 20.94652344 38.44332031 20.95117188 37.41601562 C20.96299977 34.94398513 20.98093585 32.47198528 21 30 C14.4 30 7.8 30 1 30 C1.07897099 36.11797738 1.07897099 36.11797738 1.18017578 42.2355957 C1.18766846 43.38161255 1.18766846 43.38161255 1.1953125 44.55078125 C1.20578613 45.33106689 1.21625977 46.11135254 1.22705078 46.9152832 C1 49 1 49 -1 52 C-3.09375 52.36328125 -3.09375 52.36328125 -5.5 52.3125 C-6.2940625 52.30863281 -7.088125 52.30476563 -7.90625 52.30078125 C-10 52 -10 52 -12 50 C-12.24050903 47.89926147 -12.24050903 47.89926147 -12.22705078 45.27490234 C-12.22682419 43.80360367 -12.22682419 43.80360367 -12.22659302 42.30258179 C-12.21627045 41.24108917 -12.20594788 40.17959656 -12.1953125 39.0859375 C-12.1924826 38.00116119 -12.18965271 36.91638489 -12.18673706 35.79873657 C-12.17551578 32.32404687 -12.15040762 28.84961218 -12.125 25.375 C-12.11497272 23.02344121 -12.10584643 20.6718784 -12.09765625 18.3203125 C-12.07557011 12.54678756 -12.04207345 6.77341199 -12 1 C-7.45258717 -1.43206072 -5.04683407 -0.91008483 0 0 Z " fill="#ECECEC" transform="translate(171,35)"/>
<path d="M0 0 C3.96 0 7.92 0 12 0 C12 6.6 12 13.2 12 20 C18.6 20 25.2 20 32 20 C32 13.4 32 6.8 32 0 C35.96 0 39.92 0 44 0 C44.02464113 7.24487049 44.0428318 14.48971682 44.05493164 21.73461914 C44.05997356 24.20142033 44.06680691 26.66821852 44.07543945 29.13500977 C44.08751125 32.67204529 44.09322956 36.20904145 44.09765625 39.74609375 C44.10281754 40.85649521 44.10797882 41.96689667 44.11329651 43.11094666 C44.11337204 44.13192947 44.11344757 45.15291229 44.11352539 46.20483398 C44.115746 47.10862289 44.11796661 48.0124118 44.12025452 48.94358826 C44 51 44 51 43 52 C41.33570949 52.09823937 39.66718069 52.12973631 38 52.125 C36.63875 52.12886719 36.63875 52.12886719 35.25 52.1328125 C33 52 33 52 32 51 C31.91314397 49.43827255 31.89297781 47.87270656 31.90234375 46.30859375 C31.90556641 45.36435547 31.90878906 44.42011719 31.91210938 43.44726562 C31.92048828 42.45404297 31.92886719 41.46082031 31.9375 40.4375 C31.94201172 39.44041016 31.94652344 38.44332031 31.95117188 37.41601562 C31.96299977 34.94398513 31.98093585 32.47198528 32 30 C25.4 30 18.8 30 12 30 C12.01160156 31.50433594 12.02320313 33.00867188 12.03515625 34.55859375 C12.04453249 36.51822793 12.05363287 38.47786345 12.0625 40.4375 C12.07087891 41.43072266 12.07925781 42.42394531 12.08789062 43.44726562 C12.09111328 44.39150391 12.09433594 45.33574219 12.09765625 46.30859375 C12.10289307 47.18314209 12.10812988 48.05769043 12.11352539 48.95874023 C12 51 12 51 11 52 C9.33570949 52.09823937 7.66718069 52.12973631 6 52.125 C4.63875 52.12886719 4.63875 52.12886719 3.25 52.1328125 C1 52 1 52 0 51 C-0.09333705 49.40389018 -0.11745372 47.80366572 -0.11352539 46.20483398 C-0.11344986 45.18385117 -0.11337433 44.16286835 -0.11329651 43.11094666 C-0.10813522 42.0005452 -0.10297394 40.89014374 -0.09765625 39.74609375 C-0.0962413 38.61551041 -0.09482635 37.48492706 -0.09336853 36.32008362 C-0.08775019 32.69252935 -0.07519458 29.06503576 -0.0625 25.4375 C-0.05748736 22.98502693 -0.05292405 20.5325529 -0.04882812 18.08007812 C-0.0377748 12.05336187 -0.02049788 6.02669124 0 0 Z " fill="#FBFBFB" transform="translate(366,35)"/>
<path d="M0 0 C5.23449005 4.33481207 9.12558776 9.71052859 10.03515625 16.61328125 C10.33592986 24.2241612 8.28373279 29.87073994 3.5 35.76171875 C-1.35790294 40.94483695 -6.86831647 42.93103073 -13.84765625 43.515625 C-19.38805068 43.36247589 -24.34413166 41.59273975 -29.0625 38.76171875 C-35.43727743 32.02266832 -37.62007125 25.72034303 -37.53125 16.52734375 C-36.89537772 9.56807492 -33.43214979 4.98359982 -28.25 0.44921875 C-27.651875 -0.10765625 -27.05375 -0.66453125 -26.4375 -1.23828125 C-18.02099807 -6.28818241 -7.89337354 -5.55400678 0 0 Z M-24.25 13.44921875 C-25.84689041 16.64299957 -25.62348957 19.9744319 -25.25 23.44921875 C-23.5685707 27.31650613 -22.09766221 28.86855752 -18.25 30.44921875 C-13.84421155 31.12703236 -10.30346891 30.98716032 -6.3125 28.94921875 C-3.57733431 25.6338664 -2.42670822 22.75447345 -2.25 18.44921875 C-3.64491258 13.72201502 -5.04447783 11.00551654 -9.25 8.44921875 C-15.79427088 7.17228785 -20.14616853 7.88918902 -24.25 13.44921875 Z " fill="#F2F2F2" transform="translate(77.25,43.55078125)"/>
<path d="M0 0 C4.57973361 3.28247001 7.27053343 6.04213518 8.6328125 11.6484375 C9.13649521 14.86641038 9.5373551 18.06043455 9.8203125 21.3046875 C7.10629956 22.66169397 4.97184934 22.4170736 1.9375 22.40234375 C0.77089844 22.39912109 -0.39570312 22.39589844 -1.59765625 22.39257812 C-2.82097656 22.38419922 -4.04429687 22.37582031 -5.3046875 22.3671875 C-6.53574219 22.36267578 -7.76679687 22.35816406 -9.03515625 22.35351562 C-12.08338142 22.3417008 -15.13151064 22.32522778 -18.1796875 22.3046875 C-17.45663708 24.32510725 -17.45663708 24.32510725 -16.1796875 26.3046875 C-12.22728181 27.1971662 -9.57994364 27.77143955 -5.7421875 26.4921875 C-4.02925445 25.37174444 -4.02925445 25.37174444 -3.1796875 23.3046875 C0.1203125 23.9646875 3.4203125 24.6246875 6.8203125 25.3046875 C5.75813178 29.55341037 4.78904094 31.17548725 1.8203125 34.3046875 C-4.68740839 38.17565941 -10.78626189 38.31476356 -18.1796875 37.3046875 C-23.41593821 35.22200386 -28.07502996 31.66827273 -30.59375 26.4921875 C-32.22817817 20.39032232 -31.97074349 13.86398629 -30.1171875 7.8671875 C-22.69159319 -1.95375981 -11.36598987 -6.67234223 0 0 Z M-19.1796875 11.3046875 C-19.1796875 11.9646875 -19.1796875 12.6246875 -19.1796875 13.3046875 C-13.8996875 13.3046875 -8.6196875 13.3046875 -3.1796875 13.3046875 C-4.59125942 8.48480311 -4.59125942 8.48480311 -6.9921875 6.9921875 C-12.92920176 5.12626873 -15.21672596 6.54913366 -19.1796875 11.3046875 Z " fill="#F4F4F4" transform="translate(550.1796875,49.6953125)"/>
<path d="M0 0 C5.42686103 3.10425384 8.7508794 8.75263819 10.6875 14.5625 C10.8125 18.1875 10.8125 18.1875 10.6875 21.5625 C9.6875 22.5625 9.6875 22.5625 7.09545898 22.67602539 C5.96954346 22.67078857 4.84362793 22.66555176 3.68359375 22.66015625 C2.46865234 22.65693359 1.25371094 22.65371094 0.00195312 22.65039062 C-1.27744141 22.64201172 -2.55683594 22.63363281 -3.875 22.625 C-5.15826172 22.62048828 -6.44152344 22.61597656 -7.76367188 22.61132812 C-10.94666022 22.59949545 -14.12955762 22.58301068 -17.3125 22.5625 C-16.9825 24.2125 -16.6525 25.8625 -16.3125 27.5625 C-12.96962973 28.14941615 -9.71183224 28.63286834 -6.3125 28.5625 C-5.3225 27.5415625 -5.3225 27.5415625 -4.3125 26.5 C-3.6525 25.860625 -2.9925 25.22125 -2.3125 24.5625 C1.13372235 24.80944268 4.36915635 25.6252579 7.6875 26.5625 C7.18877744 30.52532252 6.43244794 32.31127591 3.3125 34.8125 C2.70664062 35.31265625 2.10078125 35.8128125 1.4765625 36.328125 C-3.63704469 39.85629066 -10.39747026 39.17150306 -16.3125 38.5625 C-22.52423233 36.36024832 -25.96166441 32.04568552 -29.3125 26.5625 C-31.11461131 21.15616608 -31.04534031 15.60673876 -29.125 10.25 C-22.18235474 -0.0442671 -11.97801421 -4.97936606 0 0 Z M-17.3125 10.5625 C-17.6425 11.8825 -17.9725 13.2025 -18.3125 14.5625 C-13.0325 14.5625 -7.7525 14.5625 -2.3125 14.5625 C-2.93377159 10.66408313 -2.93377159 10.66408313 -5 8.8125 C-9.59921415 6.32643829 -13.67961624 6.79506499 -17.3125 10.5625 Z " fill="#F3F3F3" transform="translate(317.3125,48.4375)"/>
<path d="M0 0 C0.33 8.91 0.66 17.82 1 27 C6.20872905 27.19103889 6.20872905 27.19103889 11 26 C12.01587978 22.95236066 12.19804406 20.65281033 12.31640625 17.45703125 C12.35830078 16.38388672 12.40019531 15.31074219 12.44335938 14.20507812 C12.48267578 13.08552734 12.52199219 11.96597656 12.5625 10.8125 C12.60568359 9.68134766 12.64886719 8.55019531 12.69335938 7.38476562 C12.79949099 4.58996646 12.90154385 1.79507838 13 -1 C17.71599818 -1.92470553 20.67265609 -2.22923777 25 0 C24.98839844 1.11117187 24.97679687 2.22234375 24.96484375 3.3671875 C24.72740017 15.23322182 24.72740017 15.23322182 26 27 C26.33 27.33 26.66 27.66 27 28 C27.0979057 29.49738124 27.12974864 30.99942892 27.125 32.5 C27.12886719 33.72203125 27.12886719 33.72203125 27.1328125 34.96875 C27 37 27 37 26 38 C18.70588235 38.23529412 18.70588235 38.23529412 15 37 C14.67 36.34 14.34 35.68 14 35 C10.45481116 36.39759905 10.45481116 36.39759905 7 38 C1.62083026 38.48468147 -3.29918781 38.91843858 -8.125 36.3125 C-11.83414997 31.73788171 -12.24465205 27.7466161 -12.1953125 21.94921875 C-12.1924826 21.29041214 -12.18965271 20.63160553 -12.18673706 19.95283508 C-12.17560924 17.86419938 -12.15051948 15.77600444 -12.125 13.6875 C-12.11496059 12.26498018 -12.10583642 10.8424536 -12.09765625 9.41992188 C-12.07569447 5.94647319 -12.04121646 2.47327967 -12 -1 C-6.82442163 -2.23228056 -5.47871603 -1.82623868 0 0 Z " fill="#F0F0F0" transform="translate(427,49)"/>
<path d="M0 0 C1.9123163 3.14327205 2.89583046 6.48710973 3.9375 10 C4.23978516 10.928125 4.54207031 11.85625 4.85351562 12.8125 C7 19.50992063 7 19.50992063 7 22 C7.66 22 8.32 22 9 22 C9.17015625 21.26136719 9.3403125 20.52273437 9.515625 19.76171875 C11.21828695 12.63408603 13.35091055 5.83115453 16 -1 C20.01804691 -1.84098656 23.01803543 -2.05404945 27 -1 C26.2218815 3.87338198 24.57468671 8.38871042 22.9453125 13.02734375 C22.64309784 13.89388077 22.34088318 14.76041779 22.0295105 15.6532135 C21.39064386 17.4818759 20.75007267 19.30994357 20.10791016 21.13745117 C19.13028564 23.92244263 18.16051271 26.71008163 17.19140625 29.49804688 C16.56818212 31.27881172 15.94449925 33.05941609 15.3203125 34.83984375 C15.0327005 35.66814194 14.7450885 36.49644012 14.44876099 37.34983826 C10.38972852 48.84851065 10.38972852 48.84851065 6.8125 51.8125 C3.04812828 53.40190139 0.10190844 53.80467103 -4 54 C-5.32 53.34 -6.64 52.68 -8 52 C-8 49.03 -8 46.06 -8 43 C-4.535 42.505 -4.535 42.505 -1 42 C0.6453881 38.3465326 1.12768173 36.51029126 0.14135742 32.56835938 C-0.35173849 31.31920958 -0.86485193 30.07783209 -1.39453125 28.84375 C-1.66134201 28.17839233 -1.92815277 27.51303467 -2.20304871 26.82751465 C-3.05527385 24.71067783 -3.9324045 22.6053832 -4.8125 20.5 C-5.67731487 18.39308421 -6.53661595 16.28413102 -7.38981628 14.17248535 C-7.92073654 12.86259723 -8.45900689 11.55565568 -9.0058136 10.25231934 C-10.53990861 6.51503975 -11.48921183 3.0066025 -12 -1 C-7.41324784 -2.3899249 -4.34801323 -2.01190963 0 0 Z " fill="#F0F0F0" transform="translate(337,49)"/>
<path d="M0 0 C5.18546832 2.92911684 8.56219718 6.99125535 11.25 12.25 C12.42358134 18.90029425 11.77636582 24.48006388 8.25 30.3125 C5.06368647 34.56845069 2.0036295 37.11801558 -3.1875 38.4375 C-10.06398675 39.40132024 -15.7876608 39.18904875 -21.5 35 C-26.68845002 30.19587961 -29.19521063 25.37146487 -29.625 18.3125 C-29.54646332 12.37316343 -26.90107835 7.94568681 -23.1875 3.4375 C-16.52202575 -1.90612914 -7.86520081 -3.53934037 0 0 Z M-15.1875 11.4375 C-17.56130026 15.19067067 -17.39955249 18.02509992 -16.78515625 22.3046875 C-16.26789435 24.69257899 -16.26789435 24.69257899 -14.0625 27.0625 C-10.27477839 28.87401903 -8.19331858 28.55022738 -4.1875 27.4375 C-2.16798938 26.50152685 -2.16798938 26.50152685 -1.1875 24.4375 C-0.13159456 19.83676915 0.1944123 17.52293496 -1.375 13.0625 C-3.21724694 10.39441822 -4.13459478 9.39153288 -7.1875 8.4375 C-10.84101863 8.4375 -12.24776776 9.32692301 -15.1875 11.4375 Z " fill="#F2F2F2" transform="translate(235.1875,48.5625)"/>
<path d="M0 0 C0.66 0.66 1.32 1.32 2 2 C2.969375 1.505 3.93875 1.01 4.9375 0.5 C10.26100143 -1.76761724 15.44733781 -1.94337516 20.875 0.0625 C24.73998825 3.58645988 25.85748452 7.17359465 26.25537109 12.27270508 C26.31795323 15.47216439 26.33153931 18.66362404 26.28125 21.86328125 C26.24975441 23.89080987 26.24023837 25.9175621 26.234375 27.9453125 C26.15420918 37.84579082 26.15420918 37.84579082 25 39 C23.00390625 39.16796875 23.00390625 39.16796875 20.5625 39.1875 C19.75941406 39.20167969 18.95632813 39.21585938 18.12890625 39.23046875 C16 39 16 39 14 37 C13.69702148 34.49389648 13.69702148 34.49389648 13.62109375 31.37109375 C13.56985352 29.69563477 13.56985352 29.69563477 13.51757812 27.98632812 C13.49115234 26.81521484 13.46472656 25.64410156 13.4375 24.4375 C13.37784345 22.12358732 13.31426103 19.80977134 13.24609375 17.49609375 C13.22216553 16.46669678 13.1982373 15.4372998 13.17358398 14.37670898 C13.263675 12.04576777 13.263675 12.04576777 12 11 C7.83009336 10.57218327 7.83009336 10.57218327 4.1875 12.3125 C2.03145085 15.37635932 1.84687696 18.22379769 1.71875 21.8515625 C1.68136719 22.78484375 1.64398438 23.718125 1.60546875 24.6796875 C1.53487685 26.65103168 1.46456655 28.62238597 1.39453125 30.59375 C1.35714844 31.52445313 1.31976563 32.45515625 1.28125 33.4140625 C1.23581055 34.69724365 1.23581055 34.69724365 1.18945312 36.00634766 C1 38 1 38 0 39 C-1.68608966 39.07205511 -3.37500659 39.08386068 -5.0625 39.0625 C-5.98160156 39.05347656 -6.90070313 39.04445312 -7.84765625 39.03515625 C-8.55792969 39.02355469 -9.26820313 39.01195312 -10 39 C-10.16743288 33.76743778 -10.328011 28.53472773 -10.48217773 23.30175781 C-10.5356202 21.52077543 -10.59095129 19.73984869 -10.64819336 17.95898438 C-10.73004181 15.40246583 -10.8051453 12.84582555 -10.87890625 10.2890625 C-10.90594131 9.49005524 -10.93297638 8.69104797 -10.96083069 7.86782837 C-11.11387171 2.22774341 -11.11387171 2.22774341 -10 0 C-6.37666845 -1.10712909 -3.62464788 -1.07759802 0 0 Z " fill="#F7F7F7" transform="translate(467,48)"/>
<path d="M0 0 C3.58477724 3.16303874 4.98871951 6.56773407 5.48144531 11.29418945 C5.47209961 12.51323975 5.46275391 13.73229004 5.453125 14.98828125 C5.45125183 15.64330124 5.44937866 16.29832123 5.44744873 16.97319031 C5.44077037 18.34554196 5.42694067 19.71787597 5.40625 21.09008789 C5.37483002 23.19890869 5.3652477 25.30698292 5.359375 27.41601562 C5.2888153 37.7111847 5.2888153 37.7111847 4.125 38.875 C2.62761876 38.9729057 1.12557108 39.00474864 -0.375 39 C-1.1896875 39.00257812 -2.004375 39.00515625 -2.84375 39.0078125 C-4.875 38.875 -4.875 38.875 -5.875 37.875 C-6.10407826 35.80576634 -6.27043552 33.72952523 -6.41015625 31.65234375 C-6.49716797 30.39228516 -6.58417969 29.13222656 -6.67382812 27.83398438 C-6.76181764 26.49349607 -6.84970695 25.15300119 -6.9375 23.8125 C-7.02887529 22.46807024 -7.12066675 21.12366869 -7.21289062 19.77929688 C-7.43770194 16.47812026 -7.6582098 13.17671152 -7.875 9.875 C-9.35617801 10.15627421 -10.83493249 10.45033732 -12.3125 10.75 C-13.54806641 10.99363281 -13.54806641 10.99363281 -14.80859375 11.2421875 C-15.49050781 11.45101562 -16.17242187 11.65984375 -16.875 11.875 C-18.16105661 14.44711322 -18.08543941 16.44406966 -18.19140625 19.3203125 C-18.23330078 20.39667969 -18.27519531 21.47304687 -18.31835938 22.58203125 C-18.37733398 24.27392578 -18.37733398 24.27392578 -18.4375 26 C-18.48068359 27.13566406 -18.52386719 28.27132812 -18.56835938 29.44140625 C-18.6746604 32.25247768 -18.77669405 35.06363945 -18.875 37.875 C-21.2546612 39.0648306 -22.78985735 39.00849966 -25.4375 39 C-26.64599609 39.00386719 -26.64599609 39.00386719 -27.87890625 39.0078125 C-29.875 38.875 -29.875 38.875 -30.875 37.875 C-30.96361992 35.0633662 -30.99022355 32.27641745 -30.97265625 29.46484375 C-30.9712413 28.62280899 -30.96982635 27.78077423 -30.96836853 26.91322327 C-30.96275263 24.21294665 -30.95019748 21.51275172 -30.9375 18.8125 C-30.93248705 16.98632932 -30.92792379 15.16015734 -30.92382812 13.33398438 C-30.91277804 8.84762458 -30.89550279 4.36132616 -30.875 -0.125 C-29.25081255 -0.20590971 -27.62548255 -0.26414995 -26 -0.3125 C-25.09507812 -0.34730469 -24.19015625 -0.38210937 -23.2578125 -0.41796875 C-22.07832031 -0.27294922 -22.07832031 -0.27294922 -20.875 -0.125 C-20.215 0.865 -19.555 1.855 -18.875 2.875 C-18.276875 2.400625 -17.67875 1.92625 -17.0625 1.4375 C-12.06040648 -2.13542394 -5.60831208 -2.1945569 0 0 Z " fill="#EFEFEF" transform="translate(279.875,48.125)"/>
<path d="M0 0 C8.49609375 -0.09765625 8.49609375 -0.09765625 11 0 C12.66342837 1.66342837 12.36048097 3.7825709 12.5625 6.0625 C12.68818359 7.44115234 12.68818359 7.44115234 12.81640625 8.84765625 C12.87699219 9.55792969 12.93757813 10.26820312 13 11 C15.97 11.495 15.97 11.495 19 12 C19 14.97 19 17.94 19 21 C16.69 21 14.38 21 12 21 C12 27.27 12 33.54 12 40 C14.64 39.67 17.28 39.34 20 39 C20.66 41.97 21.32 44.94 22 48 C17.76877769 51.50170122 13.85493408 51.32255867 8.62109375 51.30078125 C5.87424493 50.98556909 4.27143925 50.56565287 2 49 C-0.0730935 45.74833236 -0.23586508 43.17131763 -0.1953125 39.359375 C-0.18886719 38.28945312 -0.18242187 37.21953125 -0.17578125 36.1171875 C-0.15902344 35.00601563 -0.14226562 33.89484375 -0.125 32.75 C-0.11597656 31.62335938 -0.10695313 30.49671875 -0.09765625 29.3359375 C-0.07410658 26.55707635 -0.0412168 23.7786461 0 21 C-1.65 21 -3.3 21 -5 21 C-5 18.03 -5 15.06 -5 12 C-3.35 12 -1.7 12 0 12 C0 8.04 0 4.08 0 0 Z " fill="#F0F0F0" transform="translate(499,36)"/>
<path d="M0 0 C0.66 0.33 1.32 0.66 2 1 C1.34 1.66 0.68 2.32 0 3 C-0.35489567 5.50447781 -0.35489567 5.50447781 -0.37890625 8.41015625 C-0.41306641 9.48201172 -0.44722656 10.55386719 -0.48242188 11.65820312 C-0.50884766 12.78162109 -0.53527344 13.90503906 -0.5625 15.0625 C-0.62216144 17.28266722 -0.68574487 19.50273373 -0.75390625 21.72265625 C-0.77783447 22.71015869 -0.8017627 23.69766113 -0.82641602 24.71508789 C-1 27 -1 27 -2 28 C-5.4375 28.1875 -5.4375 28.1875 -9 28 C-9.66 27.34 -10.32 26.68 -11 26 C-8.36 26 -5.72 26 -3 26 C-3.02356567 24.97845825 -3.02356567 24.97845825 -3.04760742 23.9362793 C-3.10993222 20.85343719 -3.14898258 17.77072756 -3.1875 14.6875 C-3.21263672 13.61564453 -3.23777344 12.54378906 -3.26367188 11.43945312 C-3.27333984 10.41142578 -3.28300781 9.38339844 -3.29296875 8.32421875 C-3.31653442 6.9024231 -3.31653442 6.9024231 -3.34057617 5.4519043 C-2.94475643 2.60228592 -2.22175281 1.75023895 0 0 Z " fill="#F3F3F3" transform="translate(574,59)"/>
<path d="M0 0 C2 2 2 2 2.21118164 4.38256836 C2.19434326 5.35846924 2.17750488 6.33437012 2.16015625 7.33984375 C2.14919922 8.40267578 2.13824219 9.46550781 2.12695312 10.56054688 C2.10568359 11.67494141 2.08441406 12.78933594 2.0625 13.9375 C2.02807932 16.13404905 1.99793595 18.33067048 1.97265625 20.52734375 C1.95468994 21.50437256 1.93672363 22.48140137 1.91821289 23.48803711 C1.88468881 26.12938047 1.88468881 26.12938047 3 29 C2.01 28.67 1.02 28.34 0 28 C-1.36115765 23.91652704 -1.44532791 19.96587356 -1.6875 15.6875 C-1.74744141 14.84509766 -1.80738281 14.00269531 -1.86914062 13.13476562 C-2.14664655 8.2727097 -1.94852538 4.57642167 0 0 Z " fill="#E8E8E8" transform="translate(31,49)"/>
<path d="M0 0 C0.66 0 1.32 0 2 0 C2 7.26 2 14.52 2 22 C-1.69418201 23.231394 -4.2056261 22.64432764 -8 22 C-8 21.67 -8 21.34 -8 21 C-5.36 21 -2.72 21 0 21 C0 14.07 0 7.14 0 0 Z " fill="#DEDEDE" transform="translate(376,64)"/>
<path d="M0 0 C0.33 0 0.66 0 1 0 C1 6.27 1 12.54 1 19 C0.34 19.33 -0.32 19.66 -1 20 C-1.22162857 17.22964291 -1.42779249 14.45961005 -1.625 11.6875 C-1.68945312 10.90181641 -1.75390625 10.11613281 -1.8203125 9.30664062 C-1.871875 8.54931641 -1.9234375 7.79199219 -1.9765625 7.01171875 C-2.02893066 6.31522217 -2.08129883 5.61872559 -2.13525391 4.90112305 C-2 3 -2 3 0 0 Z " fill="#787878" transform="translate(171,36)"/>
<path d="M0 0 C2.31 0.33 4.62 0.66 7 1 C7 2.32 7 3.64 7 5 C7.66 5.33 8.32 5.66 9 6 C8.01 7.485 8.01 7.485 7 9 C6.34 9 5.68 9 5 9 C4.67 7.02 4.34 5.04 4 3 C3.34 3 2.68 3 2 3 C2 2.34 2 1.68 2 1 C1.34 0.67 0.68 0.34 0 0 Z " fill="#C4C4C4" transform="translate(565,47)"/>
<path d="M0 0 C0.33 0.66 0.66 1.32 1 2 C1.99 2.33 2.98 2.66 4 3 C4 3.66 4 4.32 4 5 C4.66 5 5.32 5 6 5 C6 5.66 6 6.32 6 7 C6.99 7.33 7.98 7.66 9 8 C8.67 8.99 8.34 9.98 8 11 C5.03 8.03 2.06 5.06 -1 2 C-0.67 1.34 -0.34 0.68 0 0 Z " fill="#929292" transform="translate(19,107)"/>
<path d="M0 0 C0.66 0.66 1.32 1.32 2 2 C1 3 1 3 -2.4375 3.1875 C-6 3 -6 3 -8 1 C-1.9453125 0.0234375 -1.9453125 0.0234375 0 0 Z " fill="#D0D0D0" transform="translate(571,84)"/>
<path d="M0 0 C0.66 0 1.32 0 2 0 C1.67 1.65 1.34 3.3 1 5 C1.99 5.66 2.98 6.32 4 7 C2.35 6.67 0.7 6.34 -1 6 C-1.625 4.125 -1.625 4.125 -2 2 C-1.34 1.34 -0.68 0.68 0 0 Z " fill="#C6C6C6" transform="translate(596,55)"/>
<path d="" fill="#000000" transform="translate(0,0)"/>
<path d="" fill="#000000" transform="translate(0,0)"/>
<path d="" fill="#000000" transform="translate(0,0)"/>
</svg>
